<mxfile host="app.diagrams.net" modified="2023-05-10T16:27:16.303Z" agent="Mozilla/5.0 (Windows NT 10.0; Win64; x64) AppleWebKit/537.36 (KHTML, like Gecko) Chrome/113.0.0.0 Safari/537.36 Edg/113.0.1774.35" etag="Z6EWOGgdMu4FLr_fCHu7" version="21.2.9" type="github">
  <diagram name="Page-1" id="929967ad-93f9-6ef4-fab6-5d389245f69c">
    <mxGraphModel dx="945" dy="640" grid="1" gridSize="10" guides="1" tooltips="1" connect="1" arrows="1" fold="1" page="1" pageScale="1.5" pageWidth="1169" pageHeight="826" background="none" math="0" shadow="0">
      <root>
        <mxCell id="0" style=";html=1;" />
        <mxCell id="1" style=";html=1;" parent="0" />
        <mxCell id="cgJwHUEIlQNVLYglY3nc-1" value="前台音乐播放用户" style="rounded=0;whiteSpace=wrap;html=1;fontSize=16;" vertex="1" parent="1">
          <mxGeometry x="780" y="100" width="120" height="60" as="geometry" />
        </mxCell>
        <mxCell id="cgJwHUEIlQNVLYglY3nc-4" value="音乐播放" style="rounded=0;whiteSpace=wrap;html=1;fontSize=16;" vertex="1" parent="1">
          <mxGeometry x="717" y="240" width="80" height="120" as="geometry" />
        </mxCell>
        <mxCell id="cgJwHUEIlQNVLYglY3nc-5" value="音乐搜索" style="rounded=0;whiteSpace=wrap;html=1;fontSize=16;" vertex="1" parent="1">
          <mxGeometry x="1000" y="240" width="80" height="120" as="geometry" />
        </mxCell>
        <mxCell id="cgJwHUEIlQNVLYglY3nc-6" value="音乐下载" style="rounded=0;whiteSpace=wrap;html=1;fontSize=16;" vertex="1" parent="1">
          <mxGeometry x="600" y="240" width="80" height="120" as="geometry" />
        </mxCell>
        <mxCell id="cgJwHUEIlQNVLYglY3nc-7" value="评论音乐" style="rounded=0;whiteSpace=wrap;html=1;fontSize=16;" vertex="1" parent="1">
          <mxGeometry x="797" y="600" width="80" height="120" as="geometry" />
        </mxCell>
        <mxCell id="cgJwHUEIlQNVLYglY3nc-8" value="用户注册" style="rounded=0;whiteSpace=wrap;html=1;fontSize=16;" vertex="1" parent="1">
          <mxGeometry x="880" y="240" width="80" height="120" as="geometry" />
        </mxCell>
        <mxCell id="cgJwHUEIlQNVLYglY3nc-9" value="用户登录" style="rounded=0;whiteSpace=wrap;html=1;fontSize=16;" vertex="1" parent="1">
          <mxGeometry x="880" y="400" width="80" height="120" as="geometry" />
        </mxCell>
        <mxCell id="cgJwHUEIlQNVLYglY3nc-10" value="个人信息修改" style="rounded=0;whiteSpace=wrap;html=1;fontSize=16;" vertex="1" parent="1">
          <mxGeometry x="1080" y="600" width="80" height="120" as="geometry" />
        </mxCell>
        <mxCell id="cgJwHUEIlQNVLYglY3nc-11" value="头像上传、修改" style="rounded=0;whiteSpace=wrap;html=1;fontSize=16;" vertex="1" parent="1">
          <mxGeometry x="960" y="600" width="80" height="120" as="geometry" />
        </mxCell>
        <mxCell id="cgJwHUEIlQNVLYglY3nc-12" value="歌曲收藏" style="rounded=0;whiteSpace=wrap;html=1;fontSize=16;" vertex="1" parent="1">
          <mxGeometry x="680" y="600" width="80" height="120" as="geometry" />
        </mxCell>
        <mxCell id="cgJwHUEIlQNVLYglY3nc-18" style="edgeStyle=none;curved=1;rounded=0;orthogonalLoop=1;jettySize=auto;html=1;exitX=0;exitY=1;exitDx=0;exitDy=0;fontSize=12;startSize=8;endSize=8;" edge="1" parent="1" source="cgJwHUEIlQNVLYglY3nc-4" target="cgJwHUEIlQNVLYglY3nc-4">
          <mxGeometry relative="1" as="geometry" />
        </mxCell>
        <mxCell id="cgJwHUEIlQNVLYglY3nc-19" style="edgeStyle=none;curved=1;rounded=0;orthogonalLoop=1;jettySize=auto;html=1;exitX=1;exitY=0;exitDx=0;exitDy=0;fontSize=12;startSize=8;endSize=8;" edge="1" parent="1" source="cgJwHUEIlQNVLYglY3nc-4" target="cgJwHUEIlQNVLYglY3nc-4">
          <mxGeometry relative="1" as="geometry" />
        </mxCell>
        <mxCell id="cgJwHUEIlQNVLYglY3nc-21" style="edgeStyle=none;curved=1;rounded=0;orthogonalLoop=1;jettySize=auto;html=1;exitX=0.5;exitY=0;exitDx=0;exitDy=0;fontSize=12;startSize=8;endSize=8;" edge="1" parent="1" source="cgJwHUEIlQNVLYglY3nc-6" target="cgJwHUEIlQNVLYglY3nc-6">
          <mxGeometry relative="1" as="geometry" />
        </mxCell>
        <mxCell id="cgJwHUEIlQNVLYglY3nc-48" value="" style="edgeStyle=elbowEdgeStyle;elbow=vertical;endArrow=classic;html=1;curved=0;rounded=0;endSize=8;startSize=8;fontSize=12;entryX=0.5;entryY=0;entryDx=0;entryDy=0;exitX=0.5;exitY=1;exitDx=0;exitDy=0;" edge="1" parent="1" source="cgJwHUEIlQNVLYglY3nc-1" target="cgJwHUEIlQNVLYglY3nc-5">
          <mxGeometry width="50" height="50" relative="1" as="geometry">
            <mxPoint x="840" y="160" as="sourcePoint" />
            <mxPoint x="1060" y="150" as="targetPoint" />
            <Array as="points">
              <mxPoint x="900" y="200" />
              <mxPoint x="850" y="200" />
            </Array>
          </mxGeometry>
        </mxCell>
        <mxCell id="cgJwHUEIlQNVLYglY3nc-50" value="" style="edgeStyle=elbowEdgeStyle;elbow=vertical;endArrow=classic;html=1;curved=0;rounded=0;endSize=8;startSize=8;fontSize=12;entryX=0.5;entryY=0;entryDx=0;entryDy=0;exitX=0.5;exitY=1;exitDx=0;exitDy=0;" edge="1" parent="1" source="cgJwHUEIlQNVLYglY3nc-1" target="cgJwHUEIlQNVLYglY3nc-6">
          <mxGeometry width="50" height="50" relative="1" as="geometry">
            <mxPoint x="840" y="200" as="sourcePoint" />
            <mxPoint x="680" y="220" as="targetPoint" />
            <Array as="points">
              <mxPoint x="710" y="200" />
            </Array>
          </mxGeometry>
        </mxCell>
        <mxCell id="cgJwHUEIlQNVLYglY3nc-51" value="" style="edgeStyle=elbowEdgeStyle;elbow=vertical;endArrow=classic;html=1;curved=0;rounded=0;endSize=8;startSize=8;fontSize=12;entryX=0.5;entryY=0;entryDx=0;entryDy=0;exitX=0.5;exitY=1;exitDx=0;exitDy=0;" edge="1" parent="1" source="cgJwHUEIlQNVLYglY3nc-1" target="cgJwHUEIlQNVLYglY3nc-4">
          <mxGeometry width="50" height="50" relative="1" as="geometry">
            <mxPoint x="840" y="200" as="sourcePoint" />
            <mxPoint x="850" y="290" as="targetPoint" />
            <Array as="points">
              <mxPoint x="810" y="200" />
            </Array>
          </mxGeometry>
        </mxCell>
        <mxCell id="cgJwHUEIlQNVLYglY3nc-52" value="" style="edgeStyle=elbowEdgeStyle;elbow=vertical;endArrow=classic;html=1;curved=0;rounded=0;endSize=8;startSize=8;fontSize=12;entryX=0.5;entryY=0;entryDx=0;entryDy=0;exitX=0.5;exitY=1;exitDx=0;exitDy=0;" edge="1" parent="1" source="cgJwHUEIlQNVLYglY3nc-1" target="cgJwHUEIlQNVLYglY3nc-8">
          <mxGeometry width="50" height="50" relative="1" as="geometry">
            <mxPoint x="840" y="200" as="sourcePoint" />
            <mxPoint x="910" y="220" as="targetPoint" />
            <Array as="points">
              <mxPoint x="920" y="200" />
            </Array>
          </mxGeometry>
        </mxCell>
        <mxCell id="cgJwHUEIlQNVLYglY3nc-53" value="" style="edgeStyle=elbowEdgeStyle;elbow=vertical;endArrow=classic;html=1;curved=0;rounded=0;endSize=8;startSize=8;fontSize=12;exitX=0.5;exitY=1;exitDx=0;exitDy=0;entryX=0.5;entryY=0;entryDx=0;entryDy=0;" edge="1" parent="1" source="cgJwHUEIlQNVLYglY3nc-8" target="cgJwHUEIlQNVLYglY3nc-9">
          <mxGeometry width="50" height="50" relative="1" as="geometry">
            <mxPoint x="1070" y="540" as="sourcePoint" />
            <mxPoint x="1120" y="490" as="targetPoint" />
          </mxGeometry>
        </mxCell>
        <mxCell id="cgJwHUEIlQNVLYglY3nc-54" value="" style="edgeStyle=elbowEdgeStyle;elbow=vertical;endArrow=classic;html=1;curved=0;rounded=0;endSize=8;startSize=8;fontSize=12;exitX=0.5;exitY=1;exitDx=0;exitDy=0;entryX=0.5;entryY=0;entryDx=0;entryDy=0;" edge="1" parent="1" source="cgJwHUEIlQNVLYglY3nc-9" target="cgJwHUEIlQNVLYglY3nc-10">
          <mxGeometry width="50" height="50" relative="1" as="geometry">
            <mxPoint x="1000" y="580" as="sourcePoint" />
            <mxPoint x="1050" y="530" as="targetPoint" />
          </mxGeometry>
        </mxCell>
        <mxCell id="cgJwHUEIlQNVLYglY3nc-55" value="" style="edgeStyle=elbowEdgeStyle;elbow=vertical;endArrow=classic;html=1;curved=0;rounded=0;endSize=8;startSize=8;fontSize=12;exitX=0.5;exitY=1;exitDx=0;exitDy=0;entryX=0.5;entryY=0;entryDx=0;entryDy=0;" edge="1" parent="1" source="cgJwHUEIlQNVLYglY3nc-9" target="cgJwHUEIlQNVLYglY3nc-11">
          <mxGeometry width="50" height="50" relative="1" as="geometry">
            <mxPoint x="750" y="590" as="sourcePoint" />
            <mxPoint x="800" y="540" as="targetPoint" />
          </mxGeometry>
        </mxCell>
        <mxCell id="cgJwHUEIlQNVLYglY3nc-56" value="" style="edgeStyle=elbowEdgeStyle;elbow=vertical;endArrow=classic;html=1;curved=0;rounded=0;endSize=8;startSize=8;fontSize=12;exitX=0.5;exitY=1;exitDx=0;exitDy=0;entryX=0.5;entryY=0;entryDx=0;entryDy=0;" edge="1" parent="1" source="cgJwHUEIlQNVLYglY3nc-9" target="cgJwHUEIlQNVLYglY3nc-7">
          <mxGeometry width="50" height="50" relative="1" as="geometry">
            <mxPoint x="710" y="580" as="sourcePoint" />
            <mxPoint x="760" y="530" as="targetPoint" />
          </mxGeometry>
        </mxCell>
        <mxCell id="cgJwHUEIlQNVLYglY3nc-57" value="" style="edgeStyle=elbowEdgeStyle;elbow=vertical;endArrow=classic;html=1;curved=0;rounded=0;endSize=8;startSize=8;fontSize=12;exitX=0.5;exitY=1;exitDx=0;exitDy=0;entryX=0.5;entryY=0;entryDx=0;entryDy=0;" edge="1" parent="1" source="cgJwHUEIlQNVLYglY3nc-9" target="cgJwHUEIlQNVLYglY3nc-12">
          <mxGeometry width="50" height="50" relative="1" as="geometry">
            <mxPoint x="680" y="580" as="sourcePoint" />
            <mxPoint x="730" y="530" as="targetPoint" />
          </mxGeometry>
        </mxCell>
      </root>
    </mxGraphModel>
  </diagram>
</mxfile>
